<svg width="432" height="243" viewBox="0 0 432 243" fill="none" xmlns="http://www.w3.org/2000/svg">
<g clip-path="url(#clip0_6_18)">
<g opacity="0.5">
<path d="M64.1997 0.099884L112.697 126.029C114.685 131.101 116.938 134.504 119.455 136.239C121.973 137.841 124.292 138.709 126.412 138.842V142.846C123.762 142.579 120.515 142.446 116.672 142.446C112.83 142.312 108.987 142.246 105.144 142.246C99.9766 142.246 95.1401 142.312 90.6349 142.446C86.1296 142.446 82.4857 142.579 79.703 142.846V138.842C86.4609 138.575 90.7674 137.441 92.6225 135.439C94.4776 133.303 94.08 128.832 91.4299 122.025L54.4604 22.5229L57.6406 19.9202L23.0563 110.413C20.9361 115.752 19.6773 120.29 19.2798 124.027C18.8823 127.631 19.2136 130.5 20.2736 132.636C21.4662 134.771 23.3875 136.306 26.0377 137.24C28.8203 138.175 32.2655 138.709 36.3732 138.842V142.846C32.663 142.579 28.7541 142.446 24.6463 142.446C20.6711 142.312 16.9609 142.246 13.5157 142.246C10.2031 142.246 7.35417 142.312 4.96904 142.446C2.71642 142.446 0.596309 142.579 -1.3913 142.846V138.842C1.25884 138.175 3.97524 136.64 6.75789 134.237C9.54054 131.701 12.0582 127.43 14.3108 121.424L61.0195 0.099884C61.5496 0.099884 62.0796 0.099884 62.6096 0.099884C63.1396 0.099884 63.6697 0.099884 64.1997 0.099884ZM88.4485 85.1871V89.1912H29.2178L31.2054 85.1871H88.4485Z" fill="#6E2929"/>
<path d="M243.552 1.10092V5.10502C239.444 5.6389 235.469 6.9736 231.626 9.10912C227.783 11.2446 223.941 14.7816 220.098 19.72L181.737 69.1707L186.11 59.3606L233.812 126.63C236.065 129.966 238.516 132.569 241.166 134.438C243.817 136.306 247.196 137.774 251.303 138.842V142.846C248.123 142.579 244.148 142.446 239.378 142.446C234.74 142.312 230.765 142.246 227.452 142.246C225.199 142.246 222.417 142.312 219.104 142.446C215.924 142.446 211.882 142.579 206.98 142.846V138.842C211.485 138.575 214.334 137.774 215.526 136.44C216.719 135.105 216.255 132.903 214.135 129.833L185.116 85.7877C182.466 81.6501 180.081 78.5803 177.961 76.5782C175.973 74.4427 173.853 73.0413 171.6 72.3739C169.48 71.7066 166.764 71.3062 163.451 71.1727V67.1686C169.016 67.0351 173.654 65.9674 177.364 63.9653C181.207 61.8298 184.387 59.1604 186.905 55.9571L205.986 31.5321C210.359 25.9263 213.34 21.1882 214.93 17.3175C216.52 13.4469 216.454 10.5106 214.731 8.50851C213.009 6.37298 209.365 5.23849 203.8 5.10502V1.10092C206.317 1.23439 208.901 1.36786 211.551 1.50133C214.201 1.50133 216.785 1.56806 219.303 1.70153C221.953 1.70153 224.404 1.70153 226.657 1.70153C230.102 1.70153 233.282 1.63479 236.197 1.50133C239.113 1.36786 241.564 1.23439 243.552 1.10092ZM180.346 1.10092V5.10502C175.841 5.23849 172.395 5.77237 170.01 6.70666C167.758 7.50748 166.234 9.10912 165.439 11.5116C164.644 13.7806 164.246 17.3843 164.246 22.3227V121.624C164.246 126.429 164.644 130.033 165.439 132.435C166.234 134.838 167.758 136.44 170.01 137.24C172.395 138.041 175.841 138.575 180.346 138.842V142.846C177.298 142.579 173.455 142.446 168.818 142.446C164.312 142.312 159.741 142.246 155.103 142.246C149.935 142.246 145.099 142.312 140.594 142.446C136.088 142.446 132.444 142.579 129.662 142.846V138.842C134.167 138.575 137.546 138.041 139.799 137.24C142.184 136.44 143.774 134.838 144.569 132.435C145.364 130.033 145.761 126.429 145.761 121.624V22.3227C145.761 17.3843 145.364 13.7806 144.569 11.5116C143.774 9.10912 142.184 7.50748 139.799 6.70666C137.546 5.77237 134.167 5.23849 129.662 5.10502V1.10092C132.444 1.23439 136.088 1.36786 140.594 1.50133C145.099 1.63479 149.935 1.70153 155.103 1.70153C159.741 1.70153 164.312 1.63479 168.818 1.50133C173.455 1.36786 177.298 1.23439 180.346 1.10092Z" fill="#6E2929"/>
<path d="M315.756 0.099884L364.254 126.029C366.241 131.101 368.494 134.504 371.011 136.239C373.529 137.841 375.848 138.709 377.968 138.842V142.846C375.318 142.579 372.072 142.446 368.229 142.446C364.386 142.312 360.543 142.246 356.701 142.246C351.533 142.246 346.696 142.312 342.191 142.446C337.686 142.446 334.042 142.579 331.259 142.846V138.842C338.017 138.575 342.324 137.441 344.179 135.439C346.034 133.303 345.636 128.832 342.986 122.025L306.017 22.5229L309.197 19.9202L274.613 110.413C272.492 115.752 271.234 120.29 270.836 124.027C270.439 127.631 270.77 130.5 271.83 132.636C273.023 134.771 274.944 136.306 277.594 137.24C280.377 138.175 283.822 138.709 287.93 138.842V142.846C284.219 142.579 280.31 142.446 276.203 142.446C272.227 142.312 268.517 142.246 265.072 142.246C261.759 142.246 258.911 142.312 256.525 142.446C254.273 142.446 252.153 142.579 250.165 142.846V138.842C252.815 138.175 255.532 136.64 258.314 134.237C261.097 131.701 263.615 127.43 265.867 121.424L312.576 0.099884C313.106 0.099884 313.636 0.099884 314.166 0.099884C314.696 0.099884 315.226 0.099884 315.756 0.099884ZM340.005 85.1871V89.1912H280.774L282.762 85.1871H340.005Z" fill="#6E2929"/>
<path d="M431.902 1.10092V5.10502C427.397 5.23849 423.952 5.77237 421.567 6.70666C419.314 7.50748 417.79 9.10912 416.995 11.5116C416.2 13.7806 415.803 17.3843 415.803 22.3227V121.624C415.803 126.429 416.2 130.033 416.995 132.435C417.79 134.838 419.314 136.44 421.567 137.24C423.952 138.041 427.397 138.575 431.902 138.842V142.846C428.854 142.579 425.012 142.446 420.374 142.446C415.869 142.312 411.297 142.246 406.66 142.246C401.492 142.246 396.655 142.312 392.15 142.446C387.645 142.446 384.001 142.579 381.218 142.846V138.842C385.723 138.575 389.102 138.041 391.355 137.24C393.74 136.44 395.33 134.838 396.125 132.435C396.92 130.033 397.318 126.429 397.318 121.624V22.3227C397.318 17.3843 396.92 13.7806 396.125 11.5116C395.33 9.10912 393.74 7.50748 391.355 6.70666C389.102 5.77237 385.723 5.23849 381.218 5.10502V1.10092C384.001 1.23439 387.645 1.36786 392.15 1.50133C396.655 1.63479 401.492 1.70153 406.66 1.70153C411.297 1.70153 415.869 1.63479 420.374 1.50133C425.012 1.36786 428.854 1.23439 431.902 1.10092Z" fill="#6E2929"/>
</g>
<g opacity="0.7">
<path d="M64.1997 50.1512L112.697 176.08C114.685 181.152 116.938 184.556 119.455 186.291C121.973 187.892 124.292 188.76 126.412 188.893V192.897C123.762 192.63 120.515 192.497 116.672 192.497C112.83 192.364 108.987 192.297 105.144 192.297C99.9766 192.297 95.1401 192.364 90.6349 192.497C86.1296 192.497 82.4857 192.63 79.703 192.897V188.893C86.4609 188.626 90.7674 187.492 92.6225 185.49C94.4776 183.354 94.08 178.883 91.4299 172.076L54.4604 72.5741L57.6406 69.9715L23.0563 160.464C20.9361 165.803 19.6773 170.341 19.2798 174.078C18.8823 177.682 19.2136 180.551 20.2736 182.687C21.4662 184.822 23.3875 186.357 26.0377 187.292C28.8203 188.226 32.2655 188.76 36.3732 188.893V192.897C32.663 192.63 28.7541 192.497 24.6463 192.497C20.6711 192.364 16.9609 192.297 13.5157 192.297C10.2031 192.297 7.35417 192.364 4.96904 192.497C2.71642 192.497 0.596309 192.63 -1.3913 192.897V188.893C1.25884 188.226 3.97524 186.691 6.75789 184.289C9.54054 181.753 12.0582 177.482 14.3108 171.475L61.0195 50.1512C61.5496 50.1512 62.0796 50.1512 62.6096 50.1512C63.1396 50.1512 63.6697 50.1512 64.1997 50.1512ZM88.4485 135.238V139.242H29.2178L31.2054 135.238H88.4485Z" fill="#AD4040"/>
<path d="M243.552 51.1522V55.1563C239.444 55.6902 235.469 57.0249 231.626 59.1604C227.783 61.2959 223.941 64.8329 220.098 69.7713L181.737 119.222L186.11 109.412L233.812 176.681C236.065 180.018 238.516 182.62 241.166 184.489C243.817 186.357 247.196 187.826 251.303 188.893V192.897C248.123 192.63 244.148 192.497 239.378 192.497C234.74 192.364 230.765 192.297 227.452 192.297C225.199 192.297 222.417 192.364 219.104 192.497C215.924 192.497 211.882 192.63 206.98 192.897V188.893C211.485 188.626 214.334 187.826 215.526 186.491C216.719 185.156 216.255 182.954 214.135 179.884L185.116 135.839C182.466 131.701 180.081 128.632 177.961 126.63C175.973 124.494 173.853 123.093 171.6 122.425C169.48 121.758 166.764 121.357 163.451 121.224V117.22C169.016 117.086 173.654 116.019 177.364 114.017C181.207 111.881 184.387 109.212 186.905 106.008L205.986 81.5834C210.359 75.9776 213.34 71.2394 214.93 67.3688C216.52 63.4982 216.454 60.5618 214.731 58.5598C213.009 56.4243 209.365 55.2898 203.8 55.1563V51.1522C206.317 51.2857 208.901 51.4191 211.551 51.5526C214.201 51.5526 216.785 51.6193 219.303 51.7528C221.953 51.7528 224.404 51.7528 226.657 51.7528C230.102 51.7528 233.282 51.6861 236.197 51.5526C239.113 51.4191 241.564 51.2857 243.552 51.1522ZM180.346 51.1522V55.1563C175.841 55.2898 172.395 55.8236 170.01 56.7579C167.758 57.5588 166.234 59.1604 165.439 61.5629C164.644 63.8318 164.246 67.4355 164.246 72.3739V171.676C164.246 176.481 164.644 180.084 165.439 182.487C166.234 184.889 167.758 186.491 170.01 187.292C172.395 188.093 175.841 188.626 180.346 188.893V192.897C177.298 192.63 173.455 192.497 168.818 192.497C164.312 192.364 159.741 192.297 155.103 192.297C149.935 192.297 145.099 192.364 140.594 192.497C136.088 192.497 132.444 192.63 129.662 192.897V188.893C134.167 188.626 137.546 188.093 139.799 187.292C142.184 186.491 143.774 184.889 144.569 182.487C145.364 180.084 145.761 176.481 145.761 171.676V72.3739C145.761 67.4355 145.364 63.8318 144.569 61.5629C143.774 59.1604 142.184 57.5588 139.799 56.7579C137.546 55.8236 134.167 55.2898 129.662 55.1563V51.1522C132.444 51.2857 136.088 51.4191 140.594 51.5526C145.099 51.6861 149.935 51.7528 155.103 51.7528C159.741 51.7528 164.312 51.6861 168.818 51.5526C173.455 51.4191 177.298 51.2857 180.346 51.1522Z" fill="#AD4040"/>
<path d="M315.756 50.1512L364.254 176.08C366.241 181.152 368.494 184.556 371.011 186.291C373.529 187.892 375.848 188.76 377.968 188.893V192.897C375.318 192.63 372.072 192.497 368.229 192.497C364.386 192.364 360.543 192.297 356.701 192.297C351.533 192.297 346.696 192.364 342.191 192.497C337.686 192.497 334.042 192.63 331.259 192.897V188.893C338.017 188.626 342.324 187.492 344.179 185.49C346.034 183.354 345.636 178.883 342.986 172.076L306.017 72.5741L309.197 69.9715L274.613 160.464C272.492 165.803 271.234 170.341 270.836 174.078C270.439 177.682 270.77 180.551 271.83 182.687C273.023 184.822 274.944 186.357 277.594 187.292C280.377 188.226 283.822 188.76 287.93 188.893V192.897C284.219 192.63 280.31 192.497 276.203 192.497C272.227 192.364 268.517 192.297 265.072 192.297C261.759 192.297 258.911 192.364 256.525 192.497C254.273 192.497 252.153 192.63 250.165 192.897V188.893C252.815 188.226 255.532 186.691 258.314 184.289C261.097 181.753 263.615 177.482 265.867 171.475L312.576 50.1512C313.106 50.1512 313.636 50.1512 314.166 50.1512C314.696 50.1512 315.226 50.1512 315.756 50.1512ZM340.005 135.238V139.242H280.774L282.762 135.238H340.005Z" fill="#AD4040"/>
<path d="M431.902 51.1522V55.1563C427.397 55.2898 423.952 55.8236 421.567 56.7579C419.314 57.5588 417.79 59.1604 416.995 61.5629C416.2 63.8318 415.803 67.4355 415.803 72.3739V171.676C415.803 176.481 416.2 180.084 416.995 182.487C417.79 184.889 419.314 186.491 421.567 187.292C423.952 188.093 427.397 188.626 431.902 188.893V192.897C428.854 192.63 425.012 192.497 420.374 192.497C415.869 192.364 411.297 192.297 406.66 192.297C401.492 192.297 396.655 192.364 392.15 192.497C387.645 192.497 384.001 192.63 381.218 192.897V188.893C385.723 188.626 389.102 188.093 391.355 187.292C393.74 186.491 395.33 184.889 396.125 182.487C396.92 180.084 397.318 176.481 397.318 171.676V72.3739C397.318 67.4355 396.92 63.8318 396.125 61.5629C395.33 59.1604 393.74 57.5588 391.355 56.7579C389.102 55.8236 385.723 55.2898 381.218 55.1563V51.1522C384.001 51.2857 387.645 51.4191 392.15 51.5526C396.655 51.6861 401.492 51.7528 406.66 51.7528C411.297 51.7528 415.869 51.6861 420.374 51.5526C425.012 51.4191 428.854 51.2857 431.902 51.1522Z" fill="#AD4040"/>
</g>
<path d="M64.1997 100.202L112.697 226.131C114.685 231.203 116.938 234.607 119.455 236.342C121.973 237.944 124.292 238.811 126.412 238.945V242.949C123.762 242.682 120.515 242.548 116.672 242.548C112.83 242.415 108.987 242.348 105.144 242.348C99.9766 242.348 95.1401 242.415 90.6349 242.548C86.1296 242.548 82.4857 242.682 79.703 242.949V238.945C86.4609 238.678 90.7674 237.543 92.6225 235.541C94.4776 233.406 94.08 228.934 91.4299 222.127L54.4604 122.625L57.6406 120.023L23.0563 210.515C20.9361 215.854 19.6773 220.392 19.2798 224.129C18.8823 227.733 19.2136 230.603 20.2736 232.738C21.4662 234.874 23.3875 236.409 26.0377 237.343C28.8203 238.277 32.2655 238.811 36.3732 238.945V242.949C32.663 242.682 28.7541 242.548 24.6463 242.548C20.6711 242.415 16.9609 242.348 13.5157 242.348C10.2031 242.348 7.35417 242.415 4.96904 242.548C2.71642 242.548 0.596309 242.682 -1.3913 242.949V238.945C1.25884 238.277 3.97524 236.742 6.75789 234.34C9.54054 231.804 12.0582 227.533 14.3108 221.527L61.0195 100.202C61.5496 100.202 62.0796 100.202 62.6096 100.202C63.1396 100.202 63.6697 100.202 64.1997 100.202ZM88.4485 185.29V189.294H29.2178L31.2054 185.29H88.4485Z" fill="#FA5C5C"/>
<path d="M243.552 101.203V105.208C239.444 105.741 235.469 107.076 231.626 109.212C227.783 111.347 223.941 114.884 220.098 119.823L181.737 169.273L186.11 159.463L233.812 226.732C236.065 230.069 238.516 232.672 241.166 234.54C243.817 236.409 247.196 237.877 251.303 238.945V242.949C248.123 242.682 244.148 242.548 239.378 242.548C234.74 242.415 230.765 242.348 227.452 242.348C225.199 242.348 222.417 242.415 219.104 242.548C215.924 242.548 211.882 242.682 206.98 242.949V238.945C211.485 238.678 214.334 237.877 215.526 236.542C216.719 235.207 216.255 233.005 214.135 229.935L185.116 185.89C182.466 181.753 180.081 178.683 177.961 176.681C175.973 174.545 173.853 173.144 171.6 172.477C169.48 171.809 166.764 171.409 163.451 171.275V167.271C169.016 167.138 173.654 166.07 177.364 164.068C181.207 161.932 184.387 159.263 186.905 156.06L205.986 131.635C210.359 126.029 213.34 121.291 214.93 117.42C216.52 113.549 216.454 110.613 214.731 108.611C213.009 106.476 209.365 105.341 203.8 105.208V101.203C206.317 101.337 208.901 101.47 211.551 101.604C214.201 101.604 216.785 101.671 219.303 101.804C221.953 101.804 224.404 101.804 226.657 101.804C230.102 101.804 233.282 101.737 236.197 101.604C239.113 101.47 241.564 101.337 243.552 101.203ZM180.346 101.203V105.208C175.841 105.341 172.395 105.875 170.01 106.809C167.758 107.61 166.234 109.212 165.439 111.614C164.644 113.883 164.246 117.487 164.246 122.425V221.727C164.246 226.532 164.644 230.136 165.439 232.538C166.234 234.941 167.758 236.542 170.01 237.343C172.395 238.144 175.841 238.678 180.346 238.945V242.949C177.298 242.682 173.455 242.548 168.818 242.548C164.312 242.415 159.741 242.348 155.103 242.348C149.935 242.348 145.099 242.415 140.594 242.548C136.088 242.548 132.444 242.682 129.662 242.949V238.945C134.167 238.678 137.546 238.144 139.799 237.343C142.184 236.542 143.774 234.941 144.569 232.538C145.364 230.136 145.761 226.532 145.761 221.727V122.425C145.761 117.487 145.364 113.883 144.569 111.614C143.774 109.212 142.184 107.61 139.799 106.809C137.546 105.875 134.167 105.341 129.662 105.208V101.203C132.444 101.337 136.088 101.47 140.594 101.604C145.099 101.737 149.935 101.804 155.103 101.804C159.741 101.804 164.312 101.737 168.818 101.604C173.455 101.47 177.298 101.337 180.346 101.203Z" fill="#FA5C5C"/>
<path d="M315.756 100.202L364.254 226.131C366.241 231.203 368.494 234.607 371.011 236.342C373.529 237.944 375.848 238.811 377.968 238.945V242.949C375.318 242.682 372.072 242.548 368.229 242.548C364.386 242.415 360.543 242.348 356.701 242.348C351.533 242.348 346.696 242.415 342.191 242.548C337.686 242.548 334.042 242.682 331.259 242.949V238.945C338.017 238.678 342.324 237.543 344.179 235.541C346.034 233.406 345.636 228.934 342.986 222.127L306.017 122.625L309.197 120.023L274.613 210.515C272.492 215.854 271.234 220.392 270.836 224.129C270.439 227.733 270.77 230.603 271.83 232.738C273.023 234.874 274.944 236.409 277.594 237.343C280.377 238.277 283.822 238.811 287.93 238.945V242.949C284.219 242.682 280.31 242.548 276.203 242.548C272.227 242.415 268.517 242.348 265.072 242.348C261.759 242.348 258.911 242.415 256.525 242.548C254.273 242.548 252.153 242.682 250.165 242.949V238.945C252.815 238.277 255.532 236.742 258.314 234.34C261.097 231.804 263.615 227.533 265.867 221.527L312.576 100.202C313.106 100.202 313.636 100.202 314.166 100.202C314.696 100.202 315.226 100.202 315.756 100.202ZM340.005 185.29V189.294H280.774L282.762 185.29H340.005Z" fill="#FA5C5C"/>
<path d="M431.902 101.203V105.208C427.397 105.341 423.952 105.875 421.567 106.809C419.314 107.61 417.79 109.212 416.995 111.614C416.2 113.883 415.803 117.487 415.803 122.425V221.727C415.803 226.532 416.2 230.136 416.995 232.538C417.79 234.941 419.314 236.542 421.567 237.343C423.952 238.144 427.397 238.678 431.902 238.945V242.949C428.854 242.682 425.012 242.548 420.374 242.548C415.869 242.415 411.297 242.348 406.66 242.348C401.492 242.348 396.655 242.415 392.15 242.548C387.645 242.548 384.001 242.682 381.218 242.949V238.945C385.723 238.678 389.102 238.144 391.355 237.343C393.74 236.542 395.33 234.941 396.125 232.538C396.92 230.136 397.318 226.532 397.318 221.727V122.425C397.318 117.487 396.92 113.883 396.125 111.614C395.33 109.212 393.74 107.61 391.355 106.809C389.102 105.875 385.723 105.341 381.218 105.208V101.203C384.001 101.337 387.645 101.47 392.15 101.604C396.655 101.737 401.492 101.804 406.66 101.804C411.297 101.804 415.869 101.737 420.374 101.604C425.012 101.47 428.854 101.337 431.902 101.203Z" fill="#FA5C5C"/>
</g>
<defs>
<clipPath id="clip0_6_18">
<rect width="432" height="243" fill="white"/>
</clipPath>
</defs>
</svg>
