<svg width="1174" height="963" viewBox="0 0 1174 963" fill="none" xmlns="http://www.w3.org/2000/svg">
<g opacity="0.5">
<path d="M174.326 192.337L302.993 523.674C308.266 537.019 314.242 545.974 320.922 550.54C327.601 554.754 333.753 557.037 339.378 557.388V567.923C332.347 567.221 323.734 566.87 313.539 566.87C303.344 566.518 293.149 566.343 282.954 566.343C269.244 566.343 256.412 566.518 244.46 566.87C232.507 566.87 222.839 567.221 215.457 567.923V557.388C233.386 556.685 244.811 553.7 249.733 548.433C254.655 542.814 253.6 531.049 246.569 513.139L148.487 251.335L156.924 244.487L65.1696 482.586C59.5448 496.634 56.2051 508.574 55.1504 518.407C54.0958 527.889 54.9746 535.439 57.787 541.058C60.951 546.677 66.0484 550.715 73.0794 553.174C80.462 555.632 89.6022 557.037 100.5 557.388V567.923C90.6569 567.221 80.2862 566.87 69.3882 566.87C58.8417 566.518 48.9983 566.343 39.858 566.343C31.0693 566.343 23.511 566.518 17.1831 566.87C11.2067 566.87 5.58196 567.221 0.308716 567.923V557.388C7.3397 555.632 14.5465 551.593 21.929 545.272C29.3115 538.6 35.991 527.362 41.9673 511.559L165.888 192.337C167.295 192.337 168.701 192.337 170.107 192.337C171.513 192.337 172.919 192.337 174.326 192.337ZM238.659 416.214V426.749H81.5166L86.7899 416.214H238.659Z" fill="#6E2929"/>
<path d="M650.157 194.97V205.506C639.259 206.911 628.713 210.422 618.518 216.041C608.323 221.66 598.128 230.966 587.933 243.96L486.16 374.072L497.761 348.26L624.318 525.255C630.295 534.034 636.798 540.882 643.829 545.799C650.86 550.715 659.825 554.578 670.723 557.388V567.923C662.286 567.221 651.739 566.87 639.083 566.87C626.779 566.518 616.233 566.343 607.444 566.343C601.468 566.343 594.085 566.518 585.296 566.87C576.859 566.87 566.137 567.221 553.13 567.923V557.388C565.082 556.685 572.641 554.578 575.805 551.066C578.969 547.555 577.738 541.76 572.113 533.683L495.124 417.794C488.093 406.907 481.765 398.83 476.14 393.562C470.867 387.944 465.242 384.256 459.266 382.5C453.641 380.744 446.434 379.691 437.646 379.34V368.804C452.411 368.453 464.715 365.644 474.558 360.376C484.753 354.757 493.19 347.734 499.87 339.305L550.493 275.039C562.094 260.29 570.004 247.823 574.223 237.639C578.441 227.455 578.265 219.729 573.695 214.461C569.125 208.842 559.458 205.857 544.692 205.506V194.97C551.372 195.322 558.227 195.673 565.258 196.024C572.289 196.024 579.144 196.2 585.824 196.551C592.855 196.551 599.358 196.551 605.335 196.551C614.475 196.551 622.912 196.375 630.646 196.024C638.38 195.673 644.884 195.322 650.157 194.97ZM482.468 194.97V205.506C470.516 205.857 461.375 207.262 455.047 209.72C449.071 211.827 445.028 216.041 442.919 222.362C440.81 228.332 439.755 237.814 439.755 250.808V512.086C439.755 524.728 440.81 534.21 442.919 540.531C445.028 546.852 449.071 551.066 455.047 553.174C461.375 555.281 470.516 556.685 482.468 557.388V567.923C474.383 567.221 464.188 566.87 451.883 566.87C439.931 566.518 427.802 566.343 415.498 566.343C401.788 566.343 388.956 566.518 377.003 566.87C365.051 566.87 355.383 567.221 348.001 567.923V557.388C359.953 556.685 368.918 555.281 374.894 553.174C381.222 551.066 385.441 546.852 387.55 540.531C389.659 534.21 390.714 524.728 390.714 512.086V250.808C390.714 237.814 389.659 228.332 387.55 222.362C385.441 216.041 381.222 211.827 374.894 209.72C368.918 207.262 359.953 205.857 348.001 205.506V194.97C355.383 195.322 365.051 195.673 377.003 196.024C388.956 196.375 401.788 196.551 415.498 196.551C427.802 196.551 439.931 196.375 451.883 196.024C464.188 195.673 474.383 195.322 482.468 194.97Z" fill="#6E2929"/>
<path d="M841.72 192.337L970.387 523.674C975.66 537.019 981.637 545.974 988.316 550.54C994.996 554.754 1001.15 557.037 1006.77 557.388V567.923C999.741 567.221 991.128 566.87 980.934 566.87C970.739 566.518 960.544 566.343 950.349 566.343C936.638 566.343 923.807 566.518 911.854 566.87C899.901 566.87 890.234 567.221 882.851 567.923V557.388C900.78 556.685 912.206 553.7 917.127 548.433C922.049 542.814 920.994 531.049 913.963 513.139L815.881 251.335L824.318 244.487L732.564 482.586C726.939 496.634 723.599 508.574 722.545 518.407C721.49 527.889 722.369 535.439 725.181 541.058C728.345 546.677 733.443 550.715 740.474 553.174C747.856 555.632 756.997 557.037 767.895 557.388V567.923C758.051 567.221 747.681 566.87 736.783 566.87C726.236 566.518 716.393 566.343 707.252 566.343C698.464 566.343 690.905 566.518 684.577 566.87C678.601 566.87 672.976 567.221 667.703 567.923V557.388C674.734 555.632 681.941 551.593 689.323 545.272C696.706 538.6 703.385 527.362 709.362 511.559L833.283 192.337C834.689 192.337 836.095 192.337 837.501 192.337C838.908 192.337 840.314 192.337 841.72 192.337ZM906.054 416.214V426.749H748.911L754.184 416.214H906.054Z" fill="#6E2929"/>
<path d="M1149.86 194.97V205.506C1137.91 205.857 1128.77 207.262 1122.44 209.72C1116.47 211.827 1112.42 216.041 1110.31 222.362C1108.2 228.332 1107.15 237.814 1107.15 250.808V512.086C1107.15 524.728 1108.2 534.21 1110.31 540.531C1112.42 546.852 1116.47 551.066 1122.44 553.174C1128.77 555.281 1137.91 556.685 1149.86 557.388V567.923C1141.78 567.221 1131.58 566.87 1119.28 566.87C1107.33 566.518 1095.2 566.343 1082.89 566.343C1069.18 566.343 1056.35 566.518 1044.4 566.87C1032.45 566.87 1022.78 567.221 1015.4 567.923V557.388C1027.35 556.685 1036.31 555.281 1042.29 553.174C1048.62 551.066 1052.83 546.852 1054.94 540.531C1057.05 534.21 1058.11 524.728 1058.11 512.086V250.808C1058.11 237.814 1057.05 228.332 1054.94 222.362C1052.83 216.041 1048.62 211.827 1042.29 209.72C1036.31 207.262 1027.35 205.857 1015.4 205.506V194.97C1022.78 195.322 1032.45 195.673 1044.4 196.024C1056.35 196.375 1069.18 196.551 1082.89 196.551C1095.2 196.551 1107.33 196.375 1119.28 196.024C1131.58 195.673 1141.78 195.322 1149.86 194.97Z" fill="#6E2929"/>
</g>
<g opacity="0.7">
<path d="M174.326 324.029L302.993 655.367C308.266 668.712 314.242 677.667 320.922 682.232C327.601 686.446 333.753 688.729 339.378 689.08V699.615C332.347 698.913 323.734 698.562 313.539 698.562C303.344 698.211 293.149 698.035 282.954 698.035C269.244 698.035 256.412 698.211 244.46 698.562C232.507 698.562 222.839 698.913 215.457 699.615V689.08C233.386 688.378 244.811 685.393 249.733 680.125C254.655 674.506 253.6 662.742 246.569 644.831L148.487 383.027L156.924 376.179L65.1696 614.279C59.5448 628.326 56.2051 640.266 55.1504 650.099C54.0958 659.581 54.9746 667.131 57.787 672.75C60.951 678.369 66.0484 682.408 73.0794 684.866C80.462 687.324 89.6022 688.729 100.5 689.08V699.615C90.6569 698.913 80.2862 698.562 69.3882 698.562C58.8417 698.211 48.9983 698.035 39.858 698.035C31.0693 698.035 23.511 698.211 17.1831 698.562C11.2067 698.562 5.58196 698.913 0.308716 699.615V689.08C7.3397 687.324 14.5465 683.286 21.929 676.964C29.3115 670.292 35.991 659.054 41.9673 643.251L165.888 324.029C167.295 324.029 168.701 324.029 170.107 324.029C171.513 324.029 172.919 324.029 174.326 324.029ZM238.659 547.906V558.441H81.5166L86.7899 547.906H238.659Z" fill="#AD4040"/>
<path d="M650.157 326.663V337.198C639.259 338.603 628.713 342.115 618.518 347.733C608.323 353.352 598.128 362.659 587.933 375.652L486.16 505.764L497.761 479.953L624.318 656.947C630.295 665.727 636.798 672.575 643.829 677.491C650.86 682.408 659.825 686.271 670.723 689.08V699.615C662.286 698.913 651.739 698.562 639.083 698.562C626.779 698.211 616.233 698.035 607.444 698.035C601.468 698.035 594.085 698.211 585.296 698.562C576.859 698.562 566.137 698.913 553.13 699.615V689.08C565.082 688.378 572.641 686.271 575.805 682.759C578.969 679.247 577.738 673.452 572.113 665.375L495.124 549.486C488.093 538.6 481.765 530.522 476.14 525.255C470.867 519.636 465.242 515.948 459.266 514.193C453.641 512.437 446.434 511.383 437.646 511.032V500.497C452.411 500.145 464.715 497.336 474.558 492.068C484.753 486.449 493.19 479.426 499.87 470.998L550.493 406.732C562.094 391.982 570.004 379.515 574.223 369.331C578.441 359.147 578.265 351.421 573.695 346.153C569.125 340.534 559.458 337.549 544.692 337.198V326.663C551.372 327.014 558.227 327.365 565.258 327.716C572.289 327.716 579.144 327.892 585.824 328.243C592.855 328.243 599.358 328.243 605.335 328.243C614.475 328.243 622.912 328.067 630.646 327.716C638.38 327.365 644.884 327.014 650.157 326.663ZM482.468 326.663V337.198C470.516 337.549 461.375 338.954 455.047 341.412C449.071 343.519 445.028 347.734 442.919 354.055C440.81 360.025 439.755 369.507 439.755 382.5V643.778C439.755 656.42 440.81 665.902 442.919 672.223C445.028 678.545 449.071 682.759 455.047 684.866C461.375 686.973 470.516 688.378 482.468 689.08V699.615C474.383 698.913 464.188 698.562 451.883 698.562C439.931 698.211 427.802 698.035 415.498 698.035C401.788 698.035 388.956 698.211 377.003 698.562C365.051 698.562 355.383 698.913 348.001 699.615V689.08C359.953 688.378 368.918 686.973 374.894 684.866C381.222 682.759 385.441 678.545 387.55 672.223C389.659 665.902 390.714 656.42 390.714 643.778V382.5C390.714 369.507 389.659 360.025 387.55 354.055C385.441 347.734 381.222 343.519 374.894 341.412C368.918 338.954 359.953 337.549 348.001 337.198V326.663C355.383 327.014 365.051 327.365 377.003 327.716C388.956 328.067 401.788 328.243 415.498 328.243C427.802 328.243 439.931 328.067 451.883 327.716C464.188 327.365 474.383 327.014 482.468 326.663Z" fill="#AD4040"/>
<path d="M841.72 324.029L970.387 655.367C975.66 668.712 981.637 677.667 988.316 682.232C994.996 686.446 1001.15 688.729 1006.77 689.08V699.615C999.741 698.913 991.128 698.562 980.934 698.562C970.739 698.211 960.544 698.035 950.349 698.035C936.638 698.035 923.807 698.211 911.854 698.562C899.901 698.562 890.234 698.913 882.851 699.615V689.08C900.78 688.378 912.206 685.393 917.127 680.125C922.049 674.506 920.994 662.742 913.963 644.831L815.881 383.027L824.318 376.179L732.564 614.279C726.939 628.326 723.599 640.266 722.545 650.099C721.49 659.581 722.369 667.131 725.181 672.75C728.345 678.369 733.443 682.408 740.474 684.866C747.856 687.324 756.997 688.729 767.895 689.08V699.615C758.051 698.913 747.681 698.562 736.783 698.562C726.236 698.211 716.393 698.035 707.252 698.035C698.464 698.035 690.905 698.211 684.577 698.562C678.601 698.562 672.976 698.913 667.703 699.615V689.08C674.734 687.324 681.941 683.286 689.323 676.964C696.706 670.292 703.385 659.054 709.362 643.251L833.283 324.029C834.689 324.029 836.095 324.029 837.501 324.029C838.908 324.029 840.314 324.029 841.72 324.029ZM906.054 547.906V558.441H748.911L754.184 547.906H906.054Z" fill="#AD4040"/>
<path d="M1149.86 326.663V337.198C1137.91 337.549 1128.77 338.954 1122.44 341.412C1116.47 343.519 1112.42 347.734 1110.31 354.055C1108.2 360.025 1107.15 369.507 1107.15 382.5V643.778C1107.15 656.42 1108.2 665.902 1110.31 672.223C1112.42 678.545 1116.47 682.759 1122.44 684.866C1128.77 686.973 1137.91 688.378 1149.86 689.08V699.615C1141.78 698.913 1131.58 698.562 1119.28 698.562C1107.33 698.211 1095.2 698.035 1082.89 698.035C1069.18 698.035 1056.35 698.211 1044.4 698.562C1032.45 698.562 1022.78 698.913 1015.4 699.615V689.08C1027.35 688.378 1036.31 686.973 1042.29 684.866C1048.62 682.759 1052.83 678.545 1054.94 672.223C1057.05 665.902 1058.11 656.42 1058.11 643.778V382.5C1058.11 369.507 1057.05 360.025 1054.94 354.055C1052.83 347.734 1048.62 343.519 1042.29 341.412C1036.31 338.954 1027.35 337.549 1015.4 337.198V326.663C1022.78 327.014 1032.45 327.365 1044.4 327.716C1056.35 328.067 1069.18 328.243 1082.89 328.243C1095.2 328.243 1107.33 328.067 1119.28 327.716C1131.58 327.365 1141.78 327.014 1149.86 326.663Z" fill="#AD4040"/>
</g>
<path d="M174.326 455.721L302.993 787.059C308.266 800.404 314.242 809.359 320.922 813.924C327.601 818.138 333.753 820.421 339.378 820.772V831.308C332.347 830.605 323.734 830.254 313.539 830.254C303.344 829.903 293.149 829.727 282.954 829.727C269.244 829.727 256.412 829.903 244.46 830.254C232.507 830.254 222.839 830.605 215.457 831.308V820.772C233.386 820.07 244.811 817.085 249.733 811.817C254.655 806.198 253.6 794.434 246.569 776.524L148.487 514.719L156.924 507.871L65.1696 745.971C59.5448 760.018 56.2051 771.958 55.1504 781.791C54.0958 791.273 54.9746 798.824 57.787 804.442C60.951 810.061 66.0484 814.1 73.0794 816.558C80.462 819.016 89.6022 820.421 100.5 820.772V831.308C90.6569 830.605 80.2862 830.254 69.3882 830.254C58.8417 829.903 48.9983 829.727 39.858 829.727C31.0693 829.727 23.511 829.903 17.1831 830.254C11.2067 830.254 5.58196 830.605 0.308716 831.308V820.772C7.3397 819.016 14.5465 814.978 21.929 808.657C29.3115 801.984 35.991 790.746 41.9673 774.943L165.888 455.721C167.295 455.721 168.701 455.721 170.107 455.721C171.513 455.721 172.919 455.721 174.326 455.721ZM238.659 679.598V690.134H81.5166L86.7899 679.598H238.659Z" fill="#FA5C5C"/>
<path d="M650.157 458.355V468.89C639.259 470.295 628.713 473.807 618.518 479.426C608.323 485.045 598.128 494.351 587.933 507.345L486.16 637.457L497.761 611.645L624.318 788.639C630.295 797.419 636.798 804.267 643.829 809.183C650.86 814.1 659.825 817.963 670.723 820.772V831.308C662.286 830.605 651.739 830.254 639.083 830.254C626.779 829.903 616.233 829.727 607.444 829.727C601.468 829.727 594.085 829.903 585.296 830.254C576.859 830.254 566.137 830.605 553.13 831.308V820.772C565.082 820.07 572.641 817.963 575.805 814.451C578.969 810.939 577.738 805.145 572.113 797.068L495.124 681.178C488.093 670.292 481.765 662.215 476.14 656.947C470.867 651.328 465.242 647.641 459.266 645.885C453.641 644.129 446.434 643.075 437.646 642.724V632.189C452.411 631.838 464.715 629.028 474.558 623.761C484.753 618.142 493.19 611.118 499.87 602.69L550.493 538.424C562.094 523.674 570.004 511.208 574.223 501.023C578.441 490.839 578.265 483.113 573.695 477.846C569.125 472.227 559.458 469.242 544.692 468.89V458.355C551.372 458.706 558.227 459.057 565.258 459.409C572.289 459.409 579.144 459.584 585.824 459.935C592.855 459.935 599.358 459.935 605.335 459.935C614.475 459.935 622.912 459.76 630.646 459.409C638.38 459.057 644.884 458.706 650.157 458.355ZM482.468 458.355V468.89C470.516 469.242 461.375 470.646 455.047 473.105C449.071 475.212 445.028 479.426 442.919 485.747C440.81 491.717 439.755 501.199 439.755 514.193V775.47C439.755 788.113 440.81 797.594 442.919 803.916C445.028 810.237 449.071 814.451 455.047 816.558C461.375 818.665 470.516 820.07 482.468 820.772V831.308C474.383 830.605 464.188 830.254 451.883 830.254C439.931 829.903 427.802 829.727 415.498 829.727C401.788 829.727 388.956 829.903 377.003 830.254C365.051 830.254 355.383 830.605 348.001 831.308V820.772C359.953 820.07 368.918 818.665 374.894 816.558C381.222 814.451 385.441 810.237 387.55 803.916C389.659 797.594 390.714 788.113 390.714 775.47V514.193C390.714 501.199 389.659 491.717 387.55 485.747C385.441 479.426 381.222 475.212 374.894 473.105C368.918 470.646 359.953 469.242 348.001 468.89V458.355C355.383 458.706 365.051 459.057 377.003 459.409C388.956 459.76 401.788 459.935 415.498 459.935C427.802 459.935 439.931 459.76 451.883 459.409C464.188 459.057 474.383 458.706 482.468 458.355Z" fill="#FA5C5C"/>
<path d="M841.72 455.721L970.387 787.059C975.66 800.404 981.637 809.359 988.316 813.924C994.996 818.138 1001.15 820.421 1006.77 820.772V831.308C999.741 830.605 991.128 830.254 980.934 830.254C970.739 829.903 960.544 829.727 950.349 829.727C936.638 829.727 923.807 829.903 911.854 830.254C899.901 830.254 890.234 830.605 882.851 831.308V820.772C900.78 820.07 912.206 817.085 917.127 811.817C922.049 806.198 920.994 794.434 913.963 776.524L815.881 514.719L824.318 507.871L732.564 745.971C726.939 760.018 723.599 771.958 722.545 781.791C721.49 791.273 722.369 798.824 725.181 804.442C728.345 810.061 733.443 814.1 740.474 816.558C747.856 819.016 756.997 820.421 767.895 820.772V831.308C758.051 830.605 747.681 830.254 736.783 830.254C726.236 829.903 716.393 829.727 707.252 829.727C698.464 829.727 690.905 829.903 684.577 830.254C678.601 830.254 672.976 830.605 667.703 831.308V820.772C674.734 819.016 681.941 814.978 689.323 808.657C696.706 801.984 703.385 790.746 709.362 774.943L833.283 455.721C834.689 455.721 836.095 455.721 837.501 455.721C838.908 455.721 840.314 455.721 841.72 455.721ZM906.054 679.598V690.134H748.911L754.184 679.598H906.054Z" fill="#FA5C5C"/>
<path d="M1149.86 458.355V468.89C1137.91 469.242 1128.77 470.646 1122.44 473.105C1116.47 475.212 1112.42 479.426 1110.31 485.747C1108.2 491.717 1107.15 501.199 1107.15 514.193V775.47C1107.15 788.113 1108.2 797.594 1110.31 803.916C1112.42 810.237 1116.47 814.451 1122.44 816.558C1128.77 818.665 1137.91 820.07 1149.86 820.772V831.308C1141.78 830.605 1131.58 830.254 1119.28 830.254C1107.33 829.903 1095.2 829.727 1082.89 829.727C1069.18 829.727 1056.35 829.903 1044.4 830.254C1032.45 830.254 1022.78 830.605 1015.4 831.308V820.772C1027.35 820.07 1036.31 818.665 1042.29 816.558C1048.62 814.451 1052.83 810.237 1054.94 803.916C1057.05 797.594 1058.11 788.113 1058.11 775.47V514.193C1058.11 501.199 1057.05 491.717 1054.94 485.747C1052.83 479.426 1048.62 475.212 1042.29 473.105C1036.31 470.646 1027.35 469.242 1015.4 468.89V458.355C1022.78 458.706 1032.45 459.057 1044.4 459.409C1056.35 459.76 1069.18 459.935 1082.89 459.935C1095.2 459.935 1107.33 459.76 1119.28 459.409C1131.58 459.057 1141.78 458.706 1149.86 458.355Z" fill="#FA5C5C"/>
</svg>
