<svg xmlns="http://www.w3.org/2000/svg" xmlns:xlink="http://www.w3.org/1999/xlink" width="500" zoomAndPan="magnify" viewBox="0 0 375 374.999991" height="500" preserveAspectRatio="xMidYMid meet" version="1.2"><defs><clipPath id="e579e1ad88"><path d="M 56.25 179.464844 L 318.75 179.464844 L 318.75 195.214844 L 56.25 195.214844 Z M 56.25 179.464844 "/></clipPath></defs><g id="1ae6555d48"><g clip-rule="nonzero" clip-path="url(#e579e1ad88)"><path style=" stroke:none;fill-rule:nonzero;fill:#ffffff;fill-opacity:1;" d="M 179.195312 179.59375 C 171.496094 179.679688 164.992188 179.839844 160.109375 180.074219 C 158.730469 180.132812 156.304688 180.246094 154.710938 180.320312 C 150.582031 180.503906 135.335938 181.464844 129.347656 181.917969 C 128.457031 181.980469 125.972656 182.152344 123.824219 182.289062 C 121.691406 182.421875 119.679688 182.558594 119.367188 182.597656 C 119.054688 182.632812 115.523438 182.902344 111.519531 183.210938 C 107.515625 183.507812 102.066406 183.925781 99.402344 184.132812 C 96.742188 184.332031 91.808594 184.699219 88.417969 184.933594 C 77.734375 185.683594 73.085938 186.105469 69.144531 186.667969 C 67.777344 186.867188 66.871094 187.050781 66.734375 187.175781 C 66.609375 187.285156 65.96875 187.421875 65.101562 187.53125 C 61.597656 187.949219 60.128906 188.246094 58.296875 188.910156 C 57.117188 189.339844 57.027344 189.402344 56.738281 189.90625 C 56.5 190.335938 56.464844 190.496094 56.5625 190.671875 C 56.664062 190.828125 56.664062 190.917969 56.527344 191.027344 C 56.289062 191.222656 56.289062 191.816406 56.527344 192.011719 C 56.6875 192.148438 56.6875 192.183594 56.527344 192.308594 C 56.25 192.515625 56.363281 192.785156 56.878906 193.242188 C 57.140625 193.464844 57.328125 193.722656 57.292969 193.808594 C 57.191406 194.078125 57.34375 194.351562 57.707031 194.523438 C 58.648438 195.003906 63.820312 195.199219 67.828125 194.917969 C 69.34375 194.804688 72.058594 194.644531 73.851562 194.535156 C 75.648438 194.4375 77.429688 194.324219 77.808594 194.300781 C 78.183594 194.265625 79.203125 194.203125 80.066406 194.164062 C 80.933594 194.128906 82 194.066406 82.453125 194.042969 C 83.292969 193.992188 85.179688 193.90625 87.789062 193.796875 C 88.617188 193.773438 90.085938 193.710938 91.054688 193.660156 C 92.773438 193.585938 93.339844 193.671875 91.984375 193.808594 C 89.335938 194.054688 89.472656 194.089844 93 194.03125 C 101.023438 193.90625 115.851562 193.167969 124.953125 192.441406 C 127.027344 192.28125 129.914062 192.0625 131.359375 191.949219 C 132.8125 191.851562 135.640625 191.617188 137.636719 191.457031 C 139.644531 191.285156 142.882812 191.039062 144.855469 190.902344 C 146.824219 190.769531 150.53125 190.484375 153.078125 190.289062 C 157.574219 189.945312 162.609375 189.597656 168.699219 189.242188 C 170.304688 189.15625 171.660156 189.046875 171.699219 189.007812 C 171.761719 188.933594 168.296875 188.871094 167.492188 188.921875 C 167.265625 188.945312 167.078125 188.898438 167.078125 188.835938 C 167.078125 188.773438 167.179688 188.738281 167.304688 188.738281 C 167.503906 188.75 169.929688 188.625 171.847656 188.503906 C 172.300781 188.480469 173.632812 188.417969 174.800781 188.378906 C 175.980469 188.34375 177.5 188.292969 178.191406 188.257812 C 178.878906 188.234375 180.777344 188.171875 182.394531 188.132812 C 184.015625 188.097656 185.6875 188.035156 186.101562 188.011719 C 186.515625 187.988281 188.636719 187.925781 190.808594 187.886719 C 192.980469 187.851562 195.464844 187.800781 196.332031 187.765625 C 197.199219 187.726562 200.5625 187.679688 203.804688 187.640625 C 207.054688 187.605469 210.40625 187.542969 211.273438 187.519531 C 219.160156 187.261719 275.195312 187.1875 283.09375 187.421875 C 285.890625 187.507812 289.933594 187.628906 292.070312 187.703125 C 296.777344 187.839844 302.566406 187.9375 302.300781 187.863281 C 302.1875 187.839844 301.195312 187.742188 300.105469 187.65625 L 298.097656 187.496094 L 299.980469 187.46875 C 301.019531 187.445312 301.976562 187.382812 302.113281 187.320312 C 302.316406 187.234375 302.289062 187.210938 301.964844 187.25 C 301.738281 187.273438 301.546875 187.25 301.546875 187.1875 C 301.546875 187.136719 301.898438 187.089844 302.339844 187.089844 C 302.828125 187.089844 303.054688 187.136719 302.941406 187.199219 C 302.84375 187.273438 302.980469 187.285156 303.320312 187.25 C 304.171875 187.148438 313.261719 187.949219 316.753906 188.429688 C 317.257812 188.492188 317.53125 188.480469 317.683594 188.367188 C 317.808594 188.28125 318.070312 188.246094 318.324219 188.28125 C 318.597656 188.332031 318.75 188.308594 318.75 188.207031 C 318.75 188.132812 318.625 188.074219 318.460938 188.074219 C 318.296875 188.074219 318.058594 187.988281 317.921875 187.886719 C 317.683594 187.714844 317.683594 187.703125 317.972656 187.628906 C 318.347656 187.519531 318.324219 187.371094 317.910156 187.285156 C 313.539062 186.375 295.171875 184.726562 274.742188 183.394531 C 272.609375 183.261719 269.46875 183.039062 267.773438 182.902344 C 266.078125 182.769531 263.480469 182.570312 262 182.472656 C 260.515625 182.363281 258.308594 182.203125 257.101562 182.101562 C 255.898438 182.003906 253.5 181.832031 251.765625 181.734375 C 250.046875 181.636719 246.90625 181.4375 244.796875 181.304688 C 235.003906 180.675781 231.023438 180.515625 219.183594 180.246094 C 217.148438 180.195312 215.328125 180.144531 215.140625 180.132812 C 214.941406 180.121094 213.710938 180.109375 212.390625 180.097656 C 210.949219 180.085938 210.03125 180.023438 210.082031 179.960938 C 210.117188 179.886719 210.042969 179.839844 209.929688 179.851562 C 208.9375 179.863281 207.417969 179.789062 206.691406 179.691406 C 205.597656 179.53125 189.804688 179.480469 179.195312 179.59375 Z M 164.59375 184.640625 C 164.542969 184.6875 163.6875 184.761719 162.683594 184.800781 C 161.679688 184.847656 160.636719 184.910156 160.359375 184.933594 C 160.085938 184.957031 159.066406 185.019531 158.101562 185.058594 C 157.132812 185.09375 156.066406 185.15625 155.714844 185.179688 C 155.375 185.21875 154.523438 185.265625 153.832031 185.304688 C 153.140625 185.339844 152.375 185.390625 152.136719 185.425781 C 151.898438 185.453125 151.082031 185.511719 150.316406 185.550781 C 149.5625 185.597656 148.773438 185.648438 148.558594 185.671875 C 148.359375 185.699219 147.640625 185.746094 146.988281 185.796875 C 145.835938 185.871094 145.167969 185.917969 143.472656 186.042969 C 143.023438 186.066406 142.15625 186.128906 141.527344 186.164062 C 139.945312 186.261719 138.613281 186.351562 137.949219 186.410156 C 137.296875 186.472656 134.722656 186.667969 133.179688 186.78125 C 132.589844 186.816406 131.859375 186.878906 131.546875 186.902344 C 131.230469 186.929688 130.503906 186.988281 129.914062 187.027344 C 129.324219 187.0625 128.53125 187.113281 128.15625 187.148438 C 127.777344 187.175781 127.011719 187.234375 126.460938 187.273438 C 125.066406 187.371094 124.1875 187.433594 121.4375 187.640625 C 118.324219 187.875 114.019531 188.160156 112.273438 188.257812 C 111.519531 188.292969 110.441406 188.355469 109.886719 188.378906 C 109.335938 188.417969 108.492188 188.464844 108.003906 188.503906 C 105.667969 188.640625 103.621094 188.714844 103.671875 188.652344 C 103.746094 188.578125 104.691406 188.480469 106.308594 188.378906 C 106.898438 188.34375 107.578125 188.292969 107.816406 188.257812 C 108.054688 188.234375 108.734375 188.171875 109.324219 188.132812 C 111.332031 188 112.023438 187.949219 112.710938 187.886719 C 113.089844 187.851562 115.839844 187.667969 118.800781 187.457031 C 121.777344 187.261719 125.304688 187.003906 126.648438 186.902344 C 133.578125 186.386719 142.433594 185.769531 149.6875 185.304688 C 150.179688 185.277344 151.15625 185.21875 151.886719 185.179688 C 152.613281 185.144531 154.171875 185.070312 155.339844 184.996094 C 158.0625 184.847656 159.53125 184.773438 161.804688 184.675781 C 162.808594 184.640625 163.636719 184.589844 163.652344 184.578125 C 163.726562 184.515625 164.667969 184.578125 164.59375 184.640625 Z M 227.847656 184.996094 C 235.519531 185.132812 238.042969 185.179688 247.246094 185.425781 C 257.96875 185.722656 261.898438 185.871094 263.441406 186.066406 C 263.96875 186.128906 264.019531 186.152344 263.757812 186.238281 C 263.582031 186.289062 263.519531 186.324219 263.605469 186.335938 C 263.679688 186.351562 263.757812 186.410156 263.757812 186.472656 C 263.757812 186.621094 264.007812 186.621094 221.570312 186.65625 C 204.128906 186.667969 188.914062 186.71875 187.730469 186.769531 C 186 186.828125 175.714844 186.890625 174.8125 186.855469 C 174.347656 186.828125 174.738281 186.667969 175.339844 186.644531 C 177.601562 186.535156 179.132812 186.472656 181.265625 186.398438 C 182.609375 186.363281 183.890625 186.3125 184.089844 186.289062 C 184.304688 186.261719 184.933594 186.238281 185.496094 186.238281 C 186.363281 186.226562 186.515625 186.203125 186.464844 186.042969 C 186.414062 185.917969 186.464844 185.859375 186.601562 185.859375 C 186.742188 185.859375 186.789062 185.917969 186.742188 186.042969 C 186.691406 186.191406 186.804688 186.226562 187.34375 186.226562 C 187.933594 186.226562 188.035156 186.191406 188.109375 185.945312 L 188.195312 185.671875 L 188.285156 185.980469 L 188.371094 186.289062 L 188.449219 186.003906 C 188.511719 185.769531 188.597656 185.722656 189.011719 185.746094 C 189.527344 185.757812 193.722656 185.648438 195.707031 185.550781 C 196.359375 185.523438 198.820312 185.464844 201.167969 185.414062 C 203.515625 185.363281 205.660156 185.316406 205.9375 185.304688 C 206.214844 185.292969 207.757812 185.265625 209.367188 185.253906 C 211.046875 185.253906 212.277344 185.191406 212.277344 185.132812 C 212.277344 185.058594 209.640625 185.007812 205.722656 184.996094 C 202.121094 184.996094 199.144531 184.957031 199.109375 184.933594 C 199.007812 184.824219 221.117188 184.871094 227.847656 184.996094 Z M 187.542969 185.90625 C 187.542969 185.945312 187.492188 186.003906 187.417969 186.042969 C 187.355469 186.078125 187.292969 186.054688 187.292969 185.992188 C 187.292969 185.917969 187.355469 185.859375 187.417969 185.859375 C 187.492188 185.859375 187.542969 185.882812 187.542969 185.90625 Z M 156.820312 186.3125 C 156.734375 186.335938 156.558594 186.335938 156.445312 186.3125 C 156.316406 186.277344 156.394531 186.25 156.59375 186.25 C 156.808594 186.25 156.894531 186.277344 156.820312 186.3125 Z M 154.359375 186.421875 C 154.320312 186.460938 154.207031 186.472656 154.121094 186.4375 C 154.019531 186.398438 154.058594 186.363281 154.195312 186.363281 C 154.335938 186.351562 154.410156 186.386719 154.359375 186.421875 Z M 264.257812 186.472656 C 264.257812 186.535156 264.207031 186.597656 264.144531 186.597656 C 264.070312 186.597656 263.984375 186.535156 263.945312 186.472656 C 263.90625 186.398438 263.957031 186.351562 264.058594 186.351562 C 264.171875 186.351562 264.257812 186.398438 264.257812 186.472656 Z M 152.992188 186.558594 C 152.867188 186.582031 152.664062 186.582031 152.550781 186.558594 C 152.425781 186.523438 152.527344 186.496094 152.765625 186.496094 C 153.003906 186.496094 153.105469 186.523438 152.992188 186.558594 Z M 151.171875 186.683594 C 151.007812 186.707031 150.730469 186.707031 150.542969 186.683594 C 150.339844 186.65625 150.480469 186.632812 150.820312 186.632812 C 151.171875 186.632812 151.320312 186.65625 151.171875 186.683594 Z M 174.375 186.878906 C 174.210938 187.039062 174.046875 186.914062 174.171875 186.730469 C 174.210938 186.65625 174.308594 186.632812 174.386719 186.667969 C 174.460938 186.71875 174.460938 186.792969 174.375 186.878906 Z M 149.285156 186.804688 C 149.125 186.828125 148.847656 186.828125 148.660156 186.804688 C 148.457031 186.78125 148.597656 186.757812 148.933594 186.757812 C 149.285156 186.757812 149.4375 186.78125 149.285156 186.804688 Z M 285.011719 186.804688 C 284.925781 186.828125 284.773438 186.828125 284.699219 186.804688 C 284.609375 186.769531 284.675781 186.742188 284.851562 186.742188 C 285.027344 186.742188 285.089844 186.769531 285.011719 186.804688 Z M 296.941406 186.804688 C 296.851562 186.828125 296.703125 186.828125 296.628906 186.804688 C 296.539062 186.769531 296.601562 186.742188 296.777344 186.742188 C 296.953125 186.742188 297.015625 186.769531 296.941406 186.804688 Z M 147.339844 186.929688 C 147.140625 186.953125 146.839844 186.953125 146.648438 186.929688 C 146.449219 186.902344 146.613281 186.878906 146.988281 186.878906 C 147.367188 186.878906 147.527344 186.902344 147.339844 186.929688 Z M 288.027344 186.929688 C 287.800781 186.953125 287.421875 186.953125 287.210938 186.929688 C 286.984375 186.902344 287.160156 186.878906 287.613281 186.878906 C 288.0625 186.878906 288.238281 186.902344 288.027344 186.929688 Z M 299.074219 186.929688 C 298.914062 186.953125 298.636719 186.953125 298.449219 186.929688 C 298.246094 186.902344 298.386719 186.878906 298.722656 186.878906 C 299.074219 186.878906 299.226562 186.902344 299.074219 186.929688 Z M 145.144531 187.050781 C 145.054688 187.074219 144.90625 187.074219 144.828125 187.050781 C 144.742188 187.015625 144.804688 186.988281 144.980469 186.988281 C 145.15625 186.988281 145.21875 187.015625 145.144531 187.050781 Z M 145.695312 187.039062 C 145.660156 187.074219 145.546875 187.089844 145.457031 187.050781 C 145.355469 187.015625 145.394531 186.976562 145.53125 186.976562 C 145.671875 186.964844 145.746094 187.003906 145.695312 187.039062 Z M 290.347656 187.050781 C 290.160156 187.074219 289.820312 187.074219 289.597656 187.050781 C 289.371094 187.027344 289.519531 187.003906 289.933594 187.003906 C 290.347656 187.003906 290.539062 187.027344 290.347656 187.050781 Z M 300.832031 187.050781 C 300.671875 187.074219 300.394531 187.074219 300.207031 187.050781 C 300.003906 187.027344 300.144531 187.003906 300.480469 187.003906 C 300.832031 187.003906 300.984375 187.027344 300.832031 187.050781 Z M 292.671875 187.175781 C 292.507812 187.199219 292.234375 187.199219 292.042969 187.175781 C 291.84375 187.148438 291.980469 187.125 292.320312 187.125 C 292.671875 187.125 292.824219 187.148438 292.671875 187.175781 Z M 294.679688 187.296875 C 294.519531 187.320312 294.265625 187.320312 294.117188 187.296875 C 293.953125 187.273438 294.078125 187.25 294.390625 187.25 C 294.707031 187.25 294.832031 187.273438 294.679688 187.296875 Z M 296.941406 187.421875 C 296.777344 187.445312 296.5 187.445312 296.3125 187.421875 C 296.113281 187.394531 296.25 187.371094 296.589844 187.371094 C 296.941406 187.371094 297.089844 187.394531 296.941406 187.421875 Z M 103.171875 188.6875 C 103.171875 188.761719 102.882812 188.800781 102.515625 188.785156 L 101.851562 188.773438 L 102.417969 188.6875 C 102.730469 188.640625 103.019531 188.589844 103.082031 188.589844 C 103.132812 188.578125 103.171875 188.613281 103.171875 188.6875 Z M 103.546875 188.613281 C 103.546875 188.652344 103.496094 188.714844 103.421875 188.75 C 103.359375 188.785156 103.296875 188.761719 103.296875 188.699219 C 103.296875 188.625 103.359375 188.566406 103.421875 188.566406 C 103.496094 188.566406 103.546875 188.589844 103.546875 188.613281 Z M 101.789062 188.738281 C 101.789062 188.773438 101.738281 188.835938 101.664062 188.871094 C 101.601562 188.910156 101.539062 188.886719 101.539062 188.824219 C 101.539062 188.75 101.601562 188.6875 101.664062 188.6875 C 101.738281 188.6875 101.789062 188.714844 101.789062 188.738281 Z M 166.800781 188.898438 C 166.675781 188.921875 166.476562 188.921875 166.363281 188.898438 C 166.238281 188.859375 166.335938 188.835938 166.574219 188.835938 C 166.816406 188.835938 166.914062 188.859375 166.800781 188.898438 Z M 86.433594 190.976562 C 86.394531 191.015625 86.28125 191.027344 86.195312 190.988281 C 86.09375 190.953125 86.132812 190.917969 86.269531 190.917969 C 86.410156 190.902344 86.484375 190.941406 86.433594 190.976562 Z M 86.9375 190.976562 C 86.898438 191.015625 86.785156 191.027344 86.699219 190.988281 C 86.597656 190.953125 86.632812 190.917969 86.773438 190.917969 C 86.910156 190.902344 86.984375 190.941406 86.9375 190.976562 Z M 85.050781 191.113281 C 84.800781 191.136719 84.398438 191.136719 84.171875 191.113281 C 83.960938 191.089844 84.171875 191.0625 84.652344 191.0625 C 85.140625 191.0625 85.316406 191.089844 85.050781 191.113281 Z M 81.449219 191.347656 C 76.125 191.753906 70.210938 192.394531 70.035156 192.578125 C 70 192.628906 70.640625 192.628906 71.46875 192.578125 C 72.296875 192.539062 73.515625 192.46875 74.167969 192.441406 C 74.820312 192.40625 75.6875 192.34375 76.085938 192.308594 C 76.664062 192.257812 76.804688 192.28125 76.804688 192.429688 C 76.804688 192.527344 76.726562 192.640625 76.652344 192.675781 C 76.488281 192.738281 77.695312 192.6875 79.628906 192.554688 C 80.179688 192.503906 80.609375 192.503906 80.570312 192.539062 C 80.496094 192.613281 74.730469 193.09375 73.476562 193.132812 C 73.136719 193.144531 72.621094 193.191406 72.347656 193.253906 C 72.070312 193.304688 71.304688 193.390625 70.652344 193.425781 C 69.257812 193.527344 69.15625 193.539062 67.761719 193.710938 C 67.171875 193.785156 66.019531 193.882812 65.191406 193.917969 C 64.359375 193.957031 62.753906 194.042969 61.609375 194.117188 C 59.765625 194.25 59.4375 194.238281 58.558594 194.042969 C 57.820312 193.882812 57.53125 193.757812 57.390625 193.539062 C 57.003906 192.960938 57.390625 192.859375 60.292969 192.8125 C 61.472656 192.785156 63.644531 192.652344 65.125 192.515625 C 67.410156 192.308594 75.308594 191.679688 80.445312 191.296875 C 81.234375 191.234375 82.253906 191.1875 82.703125 191.1875 C 83.15625 191.1875 82.589844 191.261719 81.449219 191.347656 Z M 58.847656 191.902344 C 58.847656 191.988281 58.082031 192.132812 57.65625 192.132812 C 57.417969 192.121094 57.417969 192.121094 57.644531 191.949219 C 57.871094 191.777344 58.847656 191.742188 58.847656 191.902344 Z M 77.558594 192.40625 C 77.558594 192.46875 77.46875 192.503906 77.367188 192.503906 C 77.269531 192.503906 77.140625 192.503906 77.09375 192.515625 C 77.042969 192.515625 76.980469 192.46875 76.953125 192.40625 C 76.929688 192.332031 77.054688 192.292969 77.242188 192.308594 C 77.417969 192.308594 77.558594 192.355469 77.558594 192.40625 Z M 81.035156 192.578125 C 80.996094 192.613281 80.882812 192.628906 80.796875 192.589844 C 80.695312 192.554688 80.734375 192.515625 80.871094 192.515625 C 81.007812 192.503906 81.085938 192.539062 81.035156 192.578125 Z M 81.035156 192.578125 "/></g><path style=" stroke:none;fill-rule:nonzero;fill:#ffffff;fill-opacity:1;" d="M 212.402344 185.144531 C 212.402344 185.191406 212.480469 185.242188 212.578125 185.242188 C 212.679688 185.242188 212.792969 185.191406 212.832031 185.144531 C 212.855469 185.09375 212.78125 185.046875 212.644531 185.046875 C 212.515625 185.046875 212.402344 185.09375 212.402344 185.144531 Z M 212.402344 185.144531 "/><path style=" stroke:none;fill-rule:nonzero;fill:#ffffff;fill-opacity:1;" d="M 75.863281 192.75 C 75.761719 192.910156 75.925781 192.910156 76.175781 192.75 C 76.339844 192.652344 76.339844 192.628906 76.152344 192.628906 C 76.039062 192.628906 75.898438 192.675781 75.863281 192.75 Z M 75.863281 192.75 "/><path style=" stroke:none;fill-rule:nonzero;fill:#ffffff;fill-opacity:1;" d="M 302.425781 187.347656 C 302.425781 187.410156 302.492188 187.433594 302.554688 187.394531 C 302.628906 187.359375 302.679688 187.296875 302.679688 187.261719 C 302.679688 187.234375 302.628906 187.210938 302.554688 187.210938 C 302.492188 187.210938 302.425781 187.273438 302.425781 187.347656 Z M 302.425781 187.347656 "/></g></svg>