<svg width="143" height="117" viewBox="0 0 143 117" fill="none" xmlns="http://www.w3.org/2000/svg">
<path opacity="0.5" d="M21.672 23.368L37.288 63.624C37.928 65.2453 38.6533 66.3333 39.464 66.888C40.2747 67.4 41.0213 67.6773 41.704 67.72V69C40.8507 68.9147 39.8053 68.872 38.568 68.872C37.3307 68.8293 36.0933 68.808 34.856 68.808C33.192 68.808 31.6347 68.8293 30.184 68.872C28.7333 68.872 27.56 68.9147 26.664 69V67.72C28.84 67.6347 30.2267 67.272 30.824 66.632C31.4213 65.9493 31.2933 64.52 30.44 62.344L18.536 30.536L19.56 29.704L8.424 58.632C7.74133 60.3387 7.336 61.7893 7.208 62.984C7.08 64.136 7.18667 65.0533 7.528 65.736C7.912 66.4187 8.53067 66.9093 9.384 67.208C10.28 67.5067 11.3893 67.6773 12.712 67.72V69C11.5173 68.9147 10.2587 68.872 8.936 68.872C7.656 68.8293 6.46133 68.808 5.352 68.808C4.28533 68.808 3.368 68.8293 2.6 68.872C1.87467 68.872 1.192 68.9147 0.552 69V67.72C1.40533 67.5067 2.28 67.016 3.176 66.248C4.072 65.4373 4.88267 64.072 5.608 62.152L20.648 23.368C20.8187 23.368 20.9893 23.368 21.16 23.368C21.3307 23.368 21.5013 23.368 21.672 23.368ZM29.48 50.568V51.848H10.408L11.048 50.568H29.48ZM79.4225 23.688V24.968C78.0998 25.1387 76.8198 25.5653 75.5825 26.248C74.3452 26.9307 73.1078 28.0613 71.8705 29.64L59.5185 45.448L60.9265 42.312L76.2865 63.816C77.0118 64.8827 77.8012 65.7147 78.6545 66.312C79.5078 66.9093 80.5958 67.3787 81.9185 67.72V69C80.8945 68.9147 79.6145 68.872 78.0785 68.872C76.5852 68.8293 75.3052 68.808 74.2385 68.808C73.5132 68.808 72.6172 68.8293 71.5505 68.872C70.5265 68.872 69.2252 68.9147 67.6465 69V67.72C69.0972 67.6347 70.0145 67.3787 70.3985 66.952C70.7825 66.5253 70.6332 65.8213 69.9505 64.84L60.6065 50.76C59.7532 49.4373 58.9852 48.456 58.3025 47.816C57.6625 47.1333 56.9798 46.6853 56.2545 46.472C55.5718 46.2587 54.6972 46.1307 53.6305 46.088V44.808C55.4225 44.7653 56.9158 44.424 58.1105 43.784C59.3478 43.1013 60.3718 42.248 61.1825 41.224L67.3265 33.416C68.7345 31.624 69.6945 30.1093 70.2065 28.872C70.7185 27.6347 70.6972 26.696 70.1425 26.056C69.5878 25.3733 68.4145 25.0107 66.6225 24.968V23.688C67.4332 23.7307 68.2652 23.7733 69.1185 23.816C69.9718 23.816 70.8038 23.8373 71.6145 23.88C72.4678 23.88 73.2572 23.88 73.9825 23.88C75.0918 23.88 76.1158 23.8587 77.0545 23.816C77.9932 23.7733 78.7825 23.7307 79.4225 23.688ZM59.0705 23.688V24.968C57.6198 25.0107 56.5105 25.1813 55.7425 25.48C55.0172 25.736 54.5265 26.248 54.2705 27.016C54.0145 27.7413 53.8865 28.8933 53.8865 30.472V62.216C53.8865 63.752 54.0145 64.904 54.2705 65.672C54.5265 66.44 55.0172 66.952 55.7425 67.208C56.5105 67.464 57.6198 67.6347 59.0705 67.72V69C58.0892 68.9147 56.8518 68.872 55.3585 68.872C53.9078 68.8293 52.4358 68.808 50.9425 68.808C49.2785 68.808 47.7212 68.8293 46.2705 68.872C44.8198 68.872 43.6465 68.9147 42.7505 69V67.72C44.2012 67.6347 45.2892 67.464 46.0145 67.208C46.7825 66.952 47.2945 66.44 47.5505 65.672C47.8065 64.904 47.9345 63.752 47.9345 62.216V30.472C47.9345 28.8933 47.8065 27.7413 47.5505 27.016C47.2945 26.248 46.7825 25.736 46.0145 25.48C45.2892 25.1813 44.2012 25.0107 42.7505 24.968V23.688C43.6465 23.7307 44.8198 23.7733 46.2705 23.816C47.7212 23.8587 49.2785 23.88 50.9425 23.88C52.4358 23.88 53.9078 23.8587 55.3585 23.816C56.8518 23.7733 58.0892 23.7307 59.0705 23.688ZM102.672 23.368L118.288 63.624C118.928 65.2453 119.653 66.3333 120.464 66.888C121.275 67.4 122.021 67.6773 122.704 67.72V69C121.851 68.9147 120.805 68.872 119.568 68.872C118.331 68.8293 117.093 68.808 115.856 68.808C114.192 68.808 112.635 68.8293 111.184 68.872C109.733 68.872 108.56 68.9147 107.664 69V67.72C109.84 67.6347 111.227 67.272 111.824 66.632C112.421 65.9493 112.293 64.52 111.44 62.344L99.536 30.536L100.56 29.704L89.424 58.632C88.7413 60.3387 88.336 61.7893 88.208 62.984C88.08 64.136 88.1867 65.0533 88.528 65.736C88.912 66.4187 89.5307 66.9093 90.384 67.208C91.28 67.5067 92.3893 67.6773 93.712 67.72V69C92.5173 68.9147 91.2587 68.872 89.936 68.872C88.656 68.8293 87.4613 68.808 86.352 68.808C85.2853 68.808 84.368 68.8293 83.6 68.872C82.8747 68.872 82.192 68.9147 81.552 69V67.72C82.4053 67.5067 83.28 67.016 84.176 66.248C85.072 65.4373 85.8827 64.072 86.608 62.152L101.648 23.368C101.819 23.368 101.989 23.368 102.16 23.368C102.331 23.368 102.501 23.368 102.672 23.368ZM110.48 50.568V51.848H91.408L92.048 50.568H110.48ZM140.071 23.688V24.968C138.62 25.0107 137.511 25.1813 136.743 25.48C136.017 25.736 135.527 26.248 135.271 27.016C135.015 27.7413 134.887 28.8933 134.887 30.472V62.216C134.887 63.752 135.015 64.904 135.271 65.672C135.527 66.44 136.017 66.952 136.743 67.208C137.511 67.464 138.62 67.6347 140.071 67.72V69C139.089 68.9147 137.852 68.872 136.359 68.872C134.908 68.8293 133.436 68.808 131.943 68.808C130.279 68.808 128.721 68.8293 127.271 68.872C125.82 68.872 124.647 68.9147 123.751 69V67.72C125.201 67.6347 126.289 67.464 127.015 67.208C127.783 66.952 128.295 66.44 128.551 65.672C128.807 64.904 128.935 63.752 128.935 62.216V30.472C128.935 28.8933 128.807 27.7413 128.551 27.016C128.295 26.248 127.783 25.736 127.015 25.48C126.289 25.1813 125.201 25.0107 123.751 24.968V23.688C124.647 23.7307 125.82 23.7733 127.271 23.816C128.721 23.8587 130.279 23.88 131.943 23.88C133.436 23.88 134.908 23.8587 136.359 23.816C137.852 23.7733 139.089 23.7307 140.071 23.688Z" fill="#6E2929"/>
<path opacity="0.7" d="M21.672 39.368L37.288 79.624C37.928 81.2453 38.6533 82.3333 39.464 82.888C40.2747 83.4 41.0213 83.6773 41.704 83.72V85C40.8507 84.9147 39.8053 84.872 38.568 84.872C37.3307 84.8293 36.0933 84.808 34.856 84.808C33.192 84.808 31.6347 84.8293 30.184 84.872C28.7333 84.872 27.56 84.9147 26.664 85V83.72C28.84 83.6347 30.2267 83.272 30.824 82.632C31.4213 81.9493 31.2933 80.52 30.44 78.344L18.536 46.536L19.56 45.704L8.424 74.632C7.74133 76.3387 7.336 77.7893 7.208 78.984C7.08 80.136 7.18667 81.0533 7.528 81.736C7.912 82.4187 8.53067 82.9093 9.384 83.208C10.28 83.5067 11.3893 83.6773 12.712 83.72V85C11.5173 84.9147 10.2587 84.872 8.936 84.872C7.656 84.8293 6.46133 84.808 5.352 84.808C4.28533 84.808 3.368 84.8293 2.6 84.872C1.87467 84.872 1.192 84.9147 0.552 85V83.72C1.40533 83.5067 2.28 83.016 3.176 82.248C4.072 81.4373 4.88267 80.072 5.608 78.152L20.648 39.368C20.8187 39.368 20.9893 39.368 21.16 39.368C21.3307 39.368 21.5013 39.368 21.672 39.368ZM29.48 66.568V67.848H10.408L11.048 66.568H29.48ZM79.4225 39.688V40.968C78.0998 41.1387 76.8198 41.5653 75.5825 42.248C74.3452 42.9307 73.1078 44.0613 71.8705 45.64L59.5185 61.448L60.9265 58.312L76.2865 79.816C77.0118 80.8827 77.8012 81.7147 78.6545 82.312C79.5078 82.9093 80.5958 83.3787 81.9185 83.72V85C80.8945 84.9147 79.6145 84.872 78.0785 84.872C76.5852 84.8293 75.3052 84.808 74.2385 84.808C73.5132 84.808 72.6172 84.8293 71.5505 84.872C70.5265 84.872 69.2252 84.9147 67.6465 85V83.72C69.0972 83.6347 70.0145 83.3787 70.3985 82.952C70.7825 82.5253 70.6332 81.8213 69.9505 80.84L60.6065 66.76C59.7532 65.4373 58.9852 64.456 58.3025 63.816C57.6625 63.1333 56.9798 62.6853 56.2545 62.472C55.5718 62.2587 54.6972 62.1307 53.6305 62.088V60.808C55.4225 60.7653 56.9158 60.424 58.1105 59.784C59.3478 59.1013 60.3718 58.248 61.1825 57.224L67.3265 49.416C68.7345 47.624 69.6945 46.1093 70.2065 44.872C70.7185 43.6347 70.6972 42.696 70.1425 42.056C69.5878 41.3733 68.4145 41.0107 66.6225 40.968V39.688C67.4332 39.7307 68.2652 39.7733 69.1185 39.816C69.9718 39.816 70.8038 39.8373 71.6145 39.88C72.4678 39.88 73.2572 39.88 73.9825 39.88C75.0918 39.88 76.1158 39.8587 77.0545 39.816C77.9932 39.7733 78.7825 39.7307 79.4225 39.688ZM59.0705 39.688V40.968C57.6198 41.0107 56.5105 41.1813 55.7425 41.48C55.0172 41.736 54.5265 42.248 54.2705 43.016C54.0145 43.7413 53.8865 44.8933 53.8865 46.472V78.216C53.8865 79.752 54.0145 80.904 54.2705 81.672C54.5265 82.44 55.0172 82.952 55.7425 83.208C56.5105 83.464 57.6198 83.6347 59.0705 83.72V85C58.0892 84.9147 56.8518 84.872 55.3585 84.872C53.9078 84.8293 52.4358 84.808 50.9425 84.808C49.2785 84.808 47.7212 84.8293 46.2705 84.872C44.8198 84.872 43.6465 84.9147 42.7505 85V83.72C44.2012 83.6347 45.2892 83.464 46.0145 83.208C46.7825 82.952 47.2945 82.44 47.5505 81.672C47.8065 80.904 47.9345 79.752 47.9345 78.216V46.472C47.9345 44.8933 47.8065 43.7413 47.5505 43.016C47.2945 42.248 46.7825 41.736 46.0145 41.48C45.2892 41.1813 44.2012 41.0107 42.7505 40.968V39.688C43.6465 39.7307 44.8198 39.7733 46.2705 39.816C47.7212 39.8587 49.2785 39.88 50.9425 39.88C52.4358 39.88 53.9078 39.8587 55.3585 39.816C56.8518 39.7733 58.0892 39.7307 59.0705 39.688ZM102.672 39.368L118.288 79.624C118.928 81.2453 119.653 82.3333 120.464 82.888C121.275 83.4 122.021 83.6773 122.704 83.72V85C121.851 84.9147 120.805 84.872 119.568 84.872C118.331 84.8293 117.093 84.808 115.856 84.808C114.192 84.808 112.635 84.8293 111.184 84.872C109.733 84.872 108.56 84.9147 107.664 85V83.72C109.84 83.6347 111.227 83.272 111.824 82.632C112.421 81.9493 112.293 80.52 111.44 78.344L99.536 46.536L100.56 45.704L89.424 74.632C88.7413 76.3387 88.336 77.7893 88.208 78.984C88.08 80.136 88.1867 81.0533 88.528 81.736C88.912 82.4187 89.5307 82.9093 90.384 83.208C91.28 83.5067 92.3893 83.6773 93.712 83.72V85C92.5173 84.9147 91.2587 84.872 89.936 84.872C88.656 84.8293 87.4613 84.808 86.352 84.808C85.2853 84.808 84.368 84.8293 83.6 84.872C82.8747 84.872 82.192 84.9147 81.552 85V83.72C82.4053 83.5067 83.28 83.016 84.176 82.248C85.072 81.4373 85.8827 80.072 86.608 78.152L101.648 39.368C101.819 39.368 101.989 39.368 102.16 39.368C102.331 39.368 102.501 39.368 102.672 39.368ZM110.48 66.568V67.848H91.408L92.048 66.568H110.48ZM140.071 39.688V40.968C138.62 41.0107 137.511 41.1813 136.743 41.48C136.017 41.736 135.527 42.248 135.271 43.016C135.015 43.7413 134.887 44.8933 134.887 46.472V78.216C134.887 79.752 135.015 80.904 135.271 81.672C135.527 82.44 136.017 82.952 136.743 83.208C137.511 83.464 138.62 83.6347 140.071 83.72V85C139.089 84.9147 137.852 84.872 136.359 84.872C134.908 84.8293 133.436 84.808 131.943 84.808C130.279 84.808 128.721 84.8293 127.271 84.872C125.82 84.872 124.647 84.9147 123.751 85V83.72C125.201 83.6347 126.289 83.464 127.015 83.208C127.783 82.952 128.295 82.44 128.551 81.672C128.807 80.904 128.935 79.752 128.935 78.216V46.472C128.935 44.8933 128.807 43.7413 128.551 43.016C128.295 42.248 127.783 41.736 127.015 41.48C126.289 41.1813 125.201 41.0107 123.751 40.968V39.688C124.647 39.7307 125.82 39.7733 127.271 39.816C128.721 39.8587 130.279 39.88 131.943 39.88C133.436 39.88 134.908 39.8587 136.359 39.816C137.852 39.7733 139.089 39.7307 140.071 39.688Z" fill="#AD4040"/>
<path d="M21.672 55.368L37.288 95.624C37.928 97.2453 38.6533 98.3333 39.464 98.888C40.2747 99.4 41.0213 99.6773 41.704 99.72V101C40.8507 100.915 39.8053 100.872 38.568 100.872C37.3307 100.829 36.0933 100.808 34.856 100.808C33.192 100.808 31.6347 100.829 30.184 100.872C28.7333 100.872 27.56 100.915 26.664 101V99.72C28.84 99.6347 30.2267 99.272 30.824 98.632C31.4213 97.9493 31.2933 96.52 30.44 94.344L18.536 62.536L19.56 61.704L8.424 90.632C7.74133 92.3387 7.336 93.7893 7.208 94.984C7.08 96.136 7.18667 97.0533 7.528 97.736C7.912 98.4187 8.53067 98.9093 9.384 99.208C10.28 99.5067 11.3893 99.6773 12.712 99.72V101C11.5173 100.915 10.2587 100.872 8.936 100.872C7.656 100.829 6.46133 100.808 5.352 100.808C4.28533 100.808 3.368 100.829 2.6 100.872C1.87467 100.872 1.192 100.915 0.552 101V99.72C1.40533 99.5067 2.28 99.016 3.176 98.248C4.072 97.4373 4.88267 96.072 5.608 94.152L20.648 55.368C20.8187 55.368 20.9893 55.368 21.16 55.368C21.3307 55.368 21.5013 55.368 21.672 55.368ZM29.48 82.568V83.848H10.408L11.048 82.568H29.48ZM79.4225 55.688V56.968C78.0998 57.1387 76.8198 57.5653 75.5825 58.248C74.3452 58.9307 73.1078 60.0613 71.8705 61.64L59.5185 77.448L60.9265 74.312L76.2865 95.816C77.0118 96.8827 77.8012 97.7147 78.6545 98.312C79.5078 98.9093 80.5958 99.3787 81.9185 99.72V101C80.8945 100.915 79.6145 100.872 78.0785 100.872C76.5852 100.829 75.3052 100.808 74.2385 100.808C73.5132 100.808 72.6172 100.829 71.5505 100.872C70.5265 100.872 69.2252 100.915 67.6465 101V99.72C69.0972 99.6347 70.0145 99.3787 70.3985 98.952C70.7825 98.5253 70.6332 97.8213 69.9505 96.84L60.6065 82.76C59.7532 81.4373 58.9852 80.456 58.3025 79.816C57.6625 79.1333 56.9798 78.6853 56.2545 78.472C55.5718 78.2587 54.6972 78.1307 53.6305 78.088V76.808C55.4225 76.7653 56.9158 76.424 58.1105 75.784C59.3478 75.1013 60.3718 74.248 61.1825 73.224L67.3265 65.416C68.7345 63.624 69.6945 62.1093 70.2065 60.872C70.7185 59.6347 70.6972 58.696 70.1425 58.056C69.5878 57.3733 68.4145 57.0107 66.6225 56.968V55.688C67.4332 55.7307 68.2652 55.7733 69.1185 55.816C69.9718 55.816 70.8038 55.8373 71.6145 55.88C72.4678 55.88 73.2572 55.88 73.9825 55.88C75.0918 55.88 76.1158 55.8587 77.0545 55.816C77.9932 55.7733 78.7825 55.7307 79.4225 55.688ZM59.0705 55.688V56.968C57.6198 57.0107 56.5105 57.1813 55.7425 57.48C55.0172 57.736 54.5265 58.248 54.2705 59.016C54.0145 59.7413 53.8865 60.8933 53.8865 62.472V94.216C53.8865 95.752 54.0145 96.904 54.2705 97.672C54.5265 98.44 55.0172 98.952 55.7425 99.208C56.5105 99.464 57.6198 99.6347 59.0705 99.72V101C58.0892 100.915 56.8518 100.872 55.3585 100.872C53.9078 100.829 52.4358 100.808 50.9425 100.808C49.2785 100.808 47.7212 100.829 46.2705 100.872C44.8198 100.872 43.6465 100.915 42.7505 101V99.72C44.2012 99.6347 45.2892 99.464 46.0145 99.208C46.7825 98.952 47.2945 98.44 47.5505 97.672C47.8065 96.904 47.9345 95.752 47.9345 94.216V62.472C47.9345 60.8933 47.8065 59.7413 47.5505 59.016C47.2945 58.248 46.7825 57.736 46.0145 57.48C45.2892 57.1813 44.2012 57.0107 42.7505 56.968V55.688C43.6465 55.7307 44.8198 55.7733 46.2705 55.816C47.7212 55.8587 49.2785 55.88 50.9425 55.88C52.4358 55.88 53.9078 55.8587 55.3585 55.816C56.8518 55.7733 58.0892 55.7307 59.0705 55.688ZM102.672 55.368L118.288 95.624C118.928 97.2453 119.653 98.3333 120.464 98.888C121.275 99.4 122.021 99.6773 122.704 99.72V101C121.851 100.915 120.805 100.872 119.568 100.872C118.331 100.829 117.093 100.808 115.856 100.808C114.192 100.808 112.635 100.829 111.184 100.872C109.733 100.872 108.56 100.915 107.664 101V99.72C109.84 99.6347 111.227 99.272 111.824 98.632C112.421 97.9493 112.293 96.52 111.44 94.344L99.536 62.536L100.56 61.704L89.424 90.632C88.7413 92.3387 88.336 93.7893 88.208 94.984C88.08 96.136 88.1867 97.0533 88.528 97.736C88.912 98.4187 89.5307 98.9093 90.384 99.208C91.28 99.5067 92.3893 99.6773 93.712 99.72V101C92.5173 100.915 91.2587 100.872 89.936 100.872C88.656 100.829 87.4613 100.808 86.352 100.808C85.2853 100.808 84.368 100.829 83.6 100.872C82.8747 100.872 82.192 100.915 81.552 101V99.72C82.4053 99.5067 83.28 99.016 84.176 98.248C85.072 97.4373 85.8827 96.072 86.608 94.152L101.648 55.368C101.819 55.368 101.989 55.368 102.16 55.368C102.331 55.368 102.501 55.368 102.672 55.368ZM110.48 82.568V83.848H91.408L92.048 82.568H110.48ZM140.071 55.688V56.968C138.62 57.0107 137.511 57.1813 136.743 57.48C136.017 57.736 135.527 58.248 135.271 59.016C135.015 59.7413 134.887 60.8933 134.887 62.472V94.216C134.887 95.752 135.015 96.904 135.271 97.672C135.527 98.44 136.017 98.952 136.743 99.208C137.511 99.464 138.62 99.6347 140.071 99.72V101C139.089 100.915 137.852 100.872 136.359 100.872C134.908 100.829 133.436 100.808 131.943 100.808C130.279 100.808 128.721 100.829 127.271 100.872C125.82 100.872 124.647 100.915 123.751 101V99.72C125.201 99.6347 126.289 99.464 127.015 99.208C127.783 98.952 128.295 98.44 128.551 97.672C128.807 96.904 128.935 95.752 128.935 94.216V62.472C128.935 60.8933 128.807 59.7413 128.551 59.016C128.295 58.248 127.783 57.736 127.015 57.48C126.289 57.1813 125.201 57.0107 123.751 56.968V55.688C124.647 55.7307 125.82 55.7733 127.271 55.816C128.721 55.8587 130.279 55.88 131.943 55.88C133.436 55.88 134.908 55.8587 136.359 55.816C137.852 55.7733 139.089 55.7307 140.071 55.688Z" fill="#FA5C5C"/>
</svg>
